<mxfile host="www.draw.io" modified="2020-02-19T14:18:56.437Z" agent="Mozilla/5.0 (Windows NT 10.0; Win64; x64) AppleWebKit/537.36 (KHTML, like Gecko) Chrome/79.0.3945.88 Safari/537.36" etag="BmhxxPUif9rzanlGEhuW" version="12.7.2" type="github">
  <diagram id="5cDdTtP86J7u5TDrQkNC" name="Page-1">
    <mxGraphModel dx="1422" dy="762" grid="1" gridSize="10" guides="1" tooltips="1" connect="1" arrows="1" fold="1" page="1" pageScale="1" pageWidth="850" pageHeight="1100" math="0" shadow="0">
      <root>
        <mxCell id="0" />
        <mxCell id="1" parent="0" />
        <mxCell id="PTYHSE6HmZREGiIMdAo4-1" value="" style="outlineConnect=0;fontColor=#232F3E;gradientColor=none;fillColor=#D05C17;strokeColor=none;dashed=0;verticalLabelPosition=bottom;verticalAlign=top;align=center;html=1;fontSize=12;fontStyle=0;aspect=fixed;pointerEvents=1;shape=mxgraph.aws4.lambda_function;" vertex="1" parent="1">
          <mxGeometry x="396.85" y="280" width="70" height="70" as="geometry" />
        </mxCell>
        <mxCell id="PTYHSE6HmZREGiIMdAo4-4" value="" style="outlineConnect=0;fontColor=#232F3E;gradientColor=none;fillColor=#277116;strokeColor=none;dashed=0;verticalLabelPosition=bottom;verticalAlign=top;align=center;html=1;fontSize=12;fontStyle=0;aspect=fixed;pointerEvents=1;shape=mxgraph.aws4.bucket_with_objects;" vertex="1" parent="1">
          <mxGeometry x="403" y="100" width="57.69" height="60" as="geometry" />
        </mxCell>
        <mxCell id="PTYHSE6HmZREGiIMdAo4-5" value="" style="outlineConnect=0;fontColor=#232F3E;gradientColor=none;fillColor=#3334B9;strokeColor=none;dashed=0;verticalLabelPosition=bottom;verticalAlign=top;align=center;html=1;fontSize=12;fontStyle=0;aspect=fixed;pointerEvents=1;shape=mxgraph.aws4.aurora_instance;" vertex="1" parent="1">
          <mxGeometry x="650" y="276" width="78" height="78" as="geometry" />
        </mxCell>
        <mxCell id="PTYHSE6HmZREGiIMdAo4-9" value="" style="edgeStyle=orthogonalEdgeStyle;rounded=0;orthogonalLoop=1;jettySize=auto;html=1;" edge="1" parent="1" source="PTYHSE6HmZREGiIMdAo4-7" target="PTYHSE6HmZREGiIMdAo4-6">
          <mxGeometry relative="1" as="geometry">
            <Array as="points">
              <mxPoint x="124" y="225" />
            </Array>
          </mxGeometry>
        </mxCell>
        <mxCell id="PTYHSE6HmZREGiIMdAo4-7" value="" style="shape=mxgraph.cisco.people.androgenous_person;html=1;dashed=0;fillColor=#036897;strokeColor=#ffffff;strokeWidth=2;verticalLabelPosition=bottom;verticalAlign=top" vertex="1" parent="1">
          <mxGeometry x="89.25" y="260" width="69" height="82" as="geometry" />
        </mxCell>
        <mxCell id="PTYHSE6HmZREGiIMdAo4-10" value="" style="group;fontColor=#66B2FF;" vertex="1" connectable="0" parent="1">
          <mxGeometry x="181" y="190" width="80" height="70" as="geometry" />
        </mxCell>
        <mxCell id="PTYHSE6HmZREGiIMdAo4-6" value="" style="verticalLabelPosition=bottom;html=1;verticalAlign=top;align=center;strokeColor=none;fillColor=#00BEF2;shape=mxgraph.azure.script_file;pointerEvents=1;" vertex="1" parent="PTYHSE6HmZREGiIMdAo4-10">
          <mxGeometry x="16.25" width="47.5" height="50" as="geometry" />
        </mxCell>
        <mxCell id="PTYHSE6HmZREGiIMdAo4-8" value="&lt;font color=&quot;#3399ff&quot;&gt;SQL Scripts&lt;/font&gt;" style="text;html=1;align=center;verticalAlign=middle;resizable=0;points=[];autosize=1;" vertex="1" parent="PTYHSE6HmZREGiIMdAo4-10">
          <mxGeometry y="50" width="80" height="20" as="geometry" />
        </mxCell>
        <mxCell id="PTYHSE6HmZREGiIMdAo4-11" style="edgeStyle=orthogonalEdgeStyle;rounded=0;orthogonalLoop=1;jettySize=auto;html=1;fontColor=#66B2FF;" edge="1" parent="1" source="PTYHSE6HmZREGiIMdAo4-6" target="PTYHSE6HmZREGiIMdAo4-4">
          <mxGeometry relative="1" as="geometry">
            <Array as="points">
              <mxPoint x="221" y="129" />
            </Array>
          </mxGeometry>
        </mxCell>
        <mxCell id="PTYHSE6HmZREGiIMdAo4-12" value="(2) uploaded when needed by npm scripts" style="text;html=1;align=center;verticalAlign=middle;resizable=0;points=[];autosize=1;fontColor=#6666FF;" vertex="1" parent="1">
          <mxGeometry x="163" y="104" width="240" height="20" as="geometry" />
        </mxCell>
        <mxCell id="PTYHSE6HmZREGiIMdAo4-13" value="(1) produces / modify scripts" style="text;html=1;align=center;verticalAlign=middle;resizable=0;points=[];autosize=1;fontColor=#6666FF;" vertex="1" parent="1">
          <mxGeometry x="20" y="195" width="170" height="20" as="geometry" />
        </mxCell>
        <mxCell id="PTYHSE6HmZREGiIMdAo4-14" value="S3 Bucket" style="text;html=1;align=center;verticalAlign=middle;resizable=0;points=[];autosize=1;fontColor=#006600;" vertex="1" parent="1">
          <mxGeometry x="458" y="128" width="70" height="20" as="geometry" />
        </mxCell>
        <mxCell id="PTYHSE6HmZREGiIMdAo4-18" value="" style="endArrow=classic;html=1;fontColor=#006600;" edge="1" parent="1">
          <mxGeometry width="50" height="50" relative="1" as="geometry">
            <mxPoint x="170" y="310" as="sourcePoint" />
            <mxPoint x="380" y="310" as="targetPoint" />
          </mxGeometry>
        </mxCell>
        <mxCell id="PTYHSE6HmZREGiIMdAo4-19" value="(3) triggered when needed by npm scripts" style="text;html=1;align=center;verticalAlign=middle;resizable=0;points=[];autosize=1;fontColor=#CC6600;" vertex="1" parent="1">
          <mxGeometry x="156.85" y="313" width="240" height="20" as="geometry" />
        </mxCell>
        <mxCell id="PTYHSE6HmZREGiIMdAo4-20" value="" style="endArrow=classic;html=1;fontColor=#CC6600;exitX=0.466;exitY=1.168;exitDx=0;exitDy=0;exitPerimeter=0;" edge="1" parent="1" source="PTYHSE6HmZREGiIMdAo4-4">
          <mxGeometry width="50" height="50" relative="1" as="geometry">
            <mxPoint x="430" y="179" as="sourcePoint" />
            <mxPoint x="429.8888888888889" y="279" as="targetPoint" />
          </mxGeometry>
        </mxCell>
        <mxCell id="PTYHSE6HmZREGiIMdAo4-21" value="(4) downloads scripts" style="text;html=1;align=center;verticalAlign=middle;resizable=0;points=[];autosize=1;fontColor=#CC6600;" vertex="1" parent="1">
          <mxGeometry x="428" y="215" width="130" height="20" as="geometry" />
        </mxCell>
        <mxCell id="PTYHSE6HmZREGiIMdAo4-22" value="" style="endArrow=classic;html=1;fontColor=#CC6600;" edge="1" parent="1">
          <mxGeometry width="50" height="50" relative="1" as="geometry">
            <mxPoint x="480" y="310" as="sourcePoint" />
            <mxPoint x="630" y="310" as="targetPoint" />
          </mxGeometry>
        </mxCell>
        <mxCell id="PTYHSE6HmZREGiIMdAo4-23" value="(5) executes scripts" style="text;html=1;align=center;verticalAlign=middle;resizable=0;points=[];autosize=1;fontColor=#CC6600;" vertex="1" parent="1">
          <mxGeometry x="495" y="311" width="120" height="20" as="geometry" />
        </mxCell>
        <mxCell id="PTYHSE6HmZREGiIMdAo4-26" value="&lt;font color=&quot;#cc6600&quot;&gt;lambda function&lt;/font&gt;" style="text;html=1;align=center;verticalAlign=middle;resizable=0;points=[];autosize=1;fontColor=#6666FF;" vertex="1" parent="1">
          <mxGeometry x="390" y="354" width="100" height="20" as="geometry" />
        </mxCell>
      </root>
    </mxGraphModel>
  </diagram>
</mxfile>
